<svg id="Capa_1" data-name="Capa 1" xmlns="http://www.w3.org/2000/svg" viewBox="0 0 283.45 382.08"><defs><style>.cls-1{fill:#eaeaea;}</style></defs><title>iconos</title><path class="cls-1" d="M252.36,5.36Q267.7,23.14,267.7,59.87q0,14.13-5.65,20.19a21.07,21.07,0,0,1-13.73,6.86q-8.08.81-28.67.81H142.13q-.82-12.11-.81-17.77,0-50.41,24.38-70h-29A154.7,154.7,0,0,0,130,23.93,69.6,69.6,0,0,0,117.5,11.42Q111.77,7,101,0H35.38c2.95,2,6.08,4,9.44,6.17L88,33.22l8.48,5.25q10.91,6.47,17.77,11.31a77.35,77.35,0,0,1,12.11,10.49q-.41,3.65-.4,11.31,0,10.9.4,16.15H48.05q-21.4,0-31.9,1.21l1.62-29.07H0v181.7H17.77L16.15,212.5q10.5,1.2,31.9,1.21h78.33q-.41,5.23-.4,16.15,0,7.66.4,11.31a77.87,77.87,0,0,1-12.11,10.49Q107.4,256.51,96.5,263L88,268.22l-43.2,27q-15.75,10.1-25.64,17.56A121.64,121.64,0,0,0,0,331.21v50.87H13.32q0-12.12,4.65-20.39a46.7,46.7,0,0,1,12.11-14.13q7.47-5.87,21.6-14.74l43.21-27.46q15.35-9.69,22.61-15.34A69.6,69.6,0,0,0,130,277.51q8.47,42,30.68,58.94A78.39,78.39,0,0,0,210.77,353q34.72,0,53.1-26.45T283,243.18q.4-9.69.41-29.07,0-21.41-.81-63.39.81-42,.81-63.39,0-19.39-.41-29.08-.5-34.83-7.57-58.25H246.86A46.38,46.38,0,0,1,252.36,5.36ZM63,178.58q-20.6,0-28.87-.81a22.85,22.85,0,0,1-14.33-6.86q-6.06-6.06-6.47-20.19.4-14.13,6.47-20.19a22.85,22.85,0,0,1,14.33-6.86q8.27-.81,28.87-.81H237.42q17,0,29.07-1.21l-1.62,29.07,1.62,29.07q-12.1-1.22-29.07-1.21Zm189.37,117.5q-15.35,17.76-46,17.77-65,0-65-82.38,0-5.66.81-17.76h77.52q20.6,0,28.67.8a21.13,21.13,0,0,1,13.73,6.87q5.65,6.06,5.65,20.19Q267.7,278.31,252.36,296.08Z"/></svg>