<svg id="Capa_1" data-name="Capa 1" xmlns="http://www.w3.org/2000/svg" viewBox="0 0 440.87 370.98"><defs><style>.cls-1{fill:#eaeaea;}</style></defs><title>iconos</title><path class="cls-1" d="M98.25,294.13q-32.11,0-45-1.26a35.73,35.73,0,0,1-22.36-10.71q-9.43-9.45-10.08-31.49H0V371H26.52l-1.33-24q18.9,1.89,45.35,1.89H342.62q32.11,0,45,1.26A35.77,35.77,0,0,1,410,360.88a29,29,0,0,1,6.34,10.1h24.52V250.67H413.16L415.68,296q-16.37-1.89-49.76-1.88H226.73l-.62-30.87q6.3-10.06,18.89-21.1T277.12,216l102-75.58q61.74-47.23,61.72-63.61V0H420.09q0,15.75-4.41,27.08T396.79,53.85Q382.3,69.29,351.44,92.58L257.6,163.13q-3.15,2.51-13.54,10.39a226.07,226.07,0,0,0-20.79,17.95,131.3,131.3,0,0,0-19.21,23.93l-98.25-61.72Q72.44,132.89,54.8,114T30.23,75.26q-6.91-19.83-9.45-48.81H0V161.86H25.82l-1.25-38.42q17.64,21.42,52.9,44.72l124.07,78.73v47.24Z"/></svg>