<svg id="Capa_1" data-name="Capa 1" xmlns="http://www.w3.org/2000/svg" viewBox="0 0 17.56 17.56"><defs><style>.cls-1{fill:#fff;}</style></defs><title>iconos</title><path class="cls-1" d="M12.07,0H5.49A5.49,5.49,0,0,0,0,5.49v6.58a5.49,5.49,0,0,0,5.49,5.49h6.58a5.49,5.49,0,0,0,5.49-5.49V5.49A5.49,5.49,0,0,0,12.07,0Zm3.84,12.07a3.84,3.84,0,0,1-3.84,3.84H5.49a3.84,3.84,0,0,1-3.84-3.84V5.49A3.84,3.84,0,0,1,5.49,1.65h6.58a3.84,3.84,0,0,1,3.84,3.84Zm0,0"/><path class="cls-1" d="M8.78,4.39a4.39,4.39,0,1,0,4.39,4.39A4.38,4.38,0,0,0,8.78,4.39Zm0,7.13a2.74,2.74,0,1,1,2.74-2.74,2.74,2.74,0,0,1-2.74,2.74Zm0,0"/><path class="cls-1" d="M14.08,4.06a.59.59,0,1,1-1.17,0,.59.59,0,0,1,1.17,0Zm0,0"/></svg>