<svg id="Capa_1" data-name="Capa 1" xmlns="http://www.w3.org/2000/svg" viewBox="0 0 100.26 95.67"><defs><style>.cls-1{fill:#fff;}</style></defs><title>iconos</title><path class="cls-1" d="M56.11,0c-3.56,0-3.23,2-6,2s-2.42-2-6-2-6.26,2.27-6.26,8.55c0,13.77,6.82,25.87,8.93,25.87,1.15,0,1.47-.85,1.47-1.66,0-1.47.71-7.65,1.84-7.65S52,31.29,52,32.76c0,.81.32,1.66,1.47,1.66,2.11,0,8.93-12.1,8.93-25.87C62.37,2.27,59.72,0,56.11,0Zm-6,20.44a2.34,2.34,0,1,1,2.34-2.34A2.34,2.34,0,0,1,50.13,20.44Z"/><path class="cls-1" d="M93.36,34.45c-1.22-3.34-3-2.33-4-4.92s1.08-3-.13-6.31-4.28-5.11-10.18-3C66.15,25,57.11,35.52,57.83,37.5a1.43,1.43,0,0,0,2.06.81c1.38-.5,7.44-1.94,7.83-.89s-5.19,3.85-6.57,4.35a1.44,1.44,0,0,0-1,1.95c.72,2,14.42,4.25,27.36-.46C93.36,41.12,94.59,37.85,93.36,34.45ZM72.1,35.83a2.34,2.34,0,1,1,3,1.39A2.34,2.34,0,0,1,72.1,35.83Z"/><path class="cls-1" d="M12.8,43.26c12.93,4.71,26.64,2.44,27.36.46a1.44,1.44,0,0,0-1-1.95c-1.38-.5-7-3.29-6.57-4.35s6.45.39,7.83.89a1.42,1.42,0,0,0,2.05-.81c.73-2-8.31-12.53-21.25-17.24-5.9-2.15-8.94-.44-10.18,3s.81,3.72-.13,6.31-2.74,1.58-4,4.92S6.89,41.12,12.8,43.26Zm12.36-6a2.34,2.34,0,1,1,3-1.39A2.34,2.34,0,0,1,25.16,37.22Z"/><path class="cls-1" d="M73.72,81.24c2.72-2.29,1.16-3.63,3.27-5.4s3.16,0,5.89-2.29,3.34-5.76-.7-10.57C73.33,52.43,60.32,47.55,58.71,48.9a1.43,1.43,0,0,0-.06,2.21c.94,1.13,4.37,6.33,3.51,7s-5.39-3.55-6.33-4.68a1.44,1.44,0,0,0-2.19-.33c-1.62,1.36.93,15,9.78,25.56C67.46,83.53,71,83.56,73.72,81.24Zm-8.56-19.5A2.34,2.34,0,1,1,64.87,65,2.33,2.33,0,0,1,65.16,61.74Z"/><path class="cls-1" d="M36.83,78.71c8.85-10.54,11.4-24.2,9.79-25.56a1.44,1.44,0,0,0-2.19.33c-.94,1.13-5.47,5.41-6.33,4.68s2.56-5.92,3.51-7a1.43,1.43,0,0,0-.06-2.21C39.94,47.55,26.93,52.43,18.08,63c-4,4.81-3.47,8.25-.7,10.57s3.78.52,5.88,2.29.55,3.11,3.28,5.4S32.8,83.53,36.83,78.71ZM35.39,65a2.34,2.34,0,1,1-.29-3.29A2.34,2.34,0,0,1,35.39,65Z"/><circle class="cls-1" cx="50.13" cy="43.82" r="6.12"/><path class="cls-1" d="M100.21,57.24a1.38,1.38,0,0,0-.94-1.68l-.07,0-29.46-7a.57.57,0,0,0-.3,1.1l29.05,8.62.07,0A1.37,1.37,0,0,0,100.21,57.24Z"/><path class="cls-1" d="M94,61a1.37,1.37,0,0,0-.69-1.78l-.11-.05-16.9-6.1a.55.55,0,0,0-.42,1L92.11,61.7l.12,0A1.37,1.37,0,0,0,94,61Z"/><path class="cls-1" d="M96.67,50.89a1.37,1.37,0,0,1-1.48,1.2l-.13,0L77.38,48.9a.55.55,0,0,1,.14-1.09l17.9,1.52.13,0A1.37,1.37,0,0,1,96.67,50.89Z"/><path class="cls-1" d="M88.65,62.34a1.45,1.45,0,0,1-1.38,2.4,1.47,1.47,0,0,1-.71-.42l-1.9-2a.6.6,0,0,1-.07-.73.61.61,0,0,1,.67-.3l2.68.64A1.51,1.51,0,0,1,88.65,62.34Z"/><path class="cls-1" d="M92.75,44.29a1.44,1.44,0,1,1-.82,2.76l-2.65-.79a.63.63,0,0,1,0-1.19l2.65-.78A1.35,1.35,0,0,1,92.75,44.29Z"/><path class="cls-1" d="M79.87,1.37a1.38,1.38,0,0,0-1.9.3s0,.05,0,.06L61.22,27a.57.57,0,0,0,.93.65l18-24.34,0-.06A1.38,1.38,0,0,0,79.87,1.37Z"/><path class="cls-1" d="M81.24,8.51a1.36,1.36,0,0,0-1.9,0l-.09.09L67.74,22.43a.55.55,0,0,0,.81.75L81.29,10.51l.08-.1A1.37,1.37,0,0,0,81.24,8.51Z"/><path class="cls-1" d="M72.69,2.52a1.37,1.37,0,0,1,.61,1.8.34.34,0,0,1-.06.12L64.22,20a.55.55,0,0,1-.73.21.54.54,0,0,1-.24-.72L70.8,3.16a.37.37,0,0,1,0-.11A1.39,1.39,0,0,1,72.69,2.52Z"/><path class="cls-1" d="M80.71,14a1.44,1.44,0,0,1,1.77,2.12,1.46,1.46,0,0,1-.63.53l-2.53,1.09a.61.61,0,0,1-.71-.17.6.6,0,0,1,0-.73l1.52-2.31A1.5,1.5,0,0,1,80.71,14Z"/><path class="cls-1" d="M65.14,3.94a1.44,1.44,0,0,1,2.59.95,1.32,1.32,0,0,1-.28.77L65.81,7.88a.63.63,0,0,1-.71.2.62.62,0,0,1-.41-.61l.17-2.75A1.45,1.45,0,0,1,65.14,3.94Z"/><path class="cls-1" d="M.05,57.24A1.38,1.38,0,0,1,1,55.56l.07,0,29.46-7a.57.57,0,0,1,.29,1.1l-29,8.62-.07,0A1.37,1.37,0,0,1,.05,57.24Z"/><path class="cls-1" d="M6.29,61A1.38,1.38,0,0,1,7,59.2l.12-.05L24,53.05a.54.54,0,0,1,.69.31.55.55,0,0,1-.27.71L8.15,61.7l-.12,0A1.37,1.37,0,0,1,6.29,61Z"/><path class="cls-1" d="M3.59,50.89a1.37,1.37,0,0,0,1.48,1.2l.13,0L22.88,48.9a.55.55,0,0,0-.14-1.09L4.83,49.33l-.12,0A1.37,1.37,0,0,0,3.59,50.89Z"/><path class="cls-1" d="M11.61,62.34A1.45,1.45,0,0,0,13,64.74a1.47,1.47,0,0,0,.71-.42l1.9-2a.6.6,0,0,0,.07-.73.61.61,0,0,0-.67-.3l-2.68.64A1.46,1.46,0,0,0,11.61,62.34Z"/><path class="cls-1" d="M7.51,44.29a1.44,1.44,0,1,0,.82,2.76L11,46.26a.62.62,0,0,0,0-1.19l-2.64-.78A1.35,1.35,0,0,0,7.51,44.29Z"/><path class="cls-1" d="M20.39,1.37a1.38,1.38,0,0,1,1.9.3.61.61,0,0,1,0,.06L39,27a.57.57,0,0,1-.93.65l-18-24.34,0-.06A1.38,1.38,0,0,1,20.39,1.37Z"/><path class="cls-1" d="M19,8.51a1.36,1.36,0,0,1,1.9,0l.09.09L32.52,22.43a.55.55,0,0,1-.81.75L19,10.51l-.08-.1A1.37,1.37,0,0,1,19,8.51Z"/><path class="cls-1" d="M27.57,2.52A1.38,1.38,0,0,0,27,4.32l.06.12L36,20a.55.55,0,0,0,1-.51L29.46,3.16a.24.24,0,0,0-.06-.11A1.38,1.38,0,0,0,27.57,2.52Z"/><path class="cls-1" d="M19.55,14a1.44,1.44,0,0,0-1.77,2.12,1.46,1.46,0,0,0,.63.53l2.53,1.09a.61.61,0,0,0,.71-.17.6.6,0,0,0,.05-.73L20.18,14.5A1.5,1.5,0,0,0,19.55,14Z"/><path class="cls-1" d="M35.12,3.94a1.45,1.45,0,0,0-2.6.95,1.4,1.4,0,0,0,.29.77l1.64,2.22a.62.62,0,0,0,.71.2.6.6,0,0,0,.4-.61L35.4,4.72A1.54,1.54,0,0,0,35.12,3.94Z"/><path class="cls-1" d="M44.86,90.52a1.38,1.38,0,0,0,1.51-1.18.31.31,0,0,0,0-.1l1.55-22.48a.57.57,0,0,0-.51-.6.58.58,0,0,0-.63.48L43.63,89a.38.38,0,0,1,0,.1A1.38,1.38,0,0,0,44.86,90.52Z"/><path class="cls-1" d="M50.14,95.67a1.38,1.38,0,0,0,1.38-1.35v-.07L50.71,64a.57.57,0,0,0-1.14,0l-.81,30.28v.07A1.38,1.38,0,0,0,50.14,95.67Z"/><path class="cls-1" d="M55.42,90.52a1.38,1.38,0,0,1-1.51-1.18.31.31,0,0,1,0-.1L52.35,66.76a.57.57,0,0,1,.51-.6.58.58,0,0,1,.63.48L56.65,89a.38.38,0,0,0,0,.1A1.38,1.38,0,0,1,55.42,90.52Z"/><path class="cls-1" d="M40,85.85a1.38,1.38,0,0,0,1.62-.94,1.55,1.55,0,0,0,0-.21l1.48-10.28a.59.59,0,0,0-.46-.66.58.58,0,0,0-.7.4L39,84.1a1.6,1.6,0,0,0,0,.21A1.38,1.38,0,0,0,40,85.85Z"/><path class="cls-1" d="M60.24,85.85a1.38,1.38,0,0,1-1.62-.94,1.55,1.55,0,0,1,0-.21L57.1,74.42a.58.58,0,0,1,.46-.66.59.59,0,0,1,.7.4l3,9.94a1.6,1.6,0,0,1,0,.21A1.38,1.38,0,0,1,60.24,85.85Z"/></svg>