<svg id="Capa_1" data-name="Capa 1" xmlns="http://www.w3.org/2000/svg" viewBox="0 0 289.56 55.55"><defs><style>.cls-1{fill:#fff;}</style></defs><title>iconos</title><path class="cls-1" d="M32.58,0c-2.07,0-1.87,1.18-3.47,1.18S27.7,0,25.64,0,22,1.32,22,5c0,8,4,15,5.19,15,.66,0,.85-.5.85-1,0-.86.41-4.45,1.07-4.45s1.07,3.59,1.07,4.45c0,.46.18,1,.85,1,1.22,0,5.19-7,5.19-15C36.22,1.32,34.68,0,32.58,0ZM29.11,11.87a1.36,1.36,0,1,1,1.36-1.36A1.36,1.36,0,0,1,29.11,11.87Z"/><path class="cls-1" d="M54.21,20c-.71-2-1.75-1.36-2.3-2.86s.63-1.73-.08-3.67-2.48-3-5.91-1.72c-7.51,2.74-12.76,8.86-12.34,10a.84.84,0,0,0,1.2.47c.8-.3,4.32-1.13,4.54-.52s-3,2.23-3.81,2.53c-.44.16-.84.5-.61,1.12.42,1.16,8.37,2.48,15.89-.26C54.21,23.87,54.93,22,54.21,20Zm-12.34.79a1.36,1.36,0,1,1,1.74.81A1.35,1.35,0,0,1,41.87,20.8Z"/><path class="cls-1" d="M7.43,25.12c7.51,2.74,15.47,1.42,15.89.26.23-.62-.17-1-.61-1.12-.8-.3-4-1.92-3.81-2.53s3.74.22,4.54.52a.83.83,0,0,0,1.19-.47c.42-1.16-4.82-7.28-12.34-10-3.42-1.25-5.19-.25-5.91,1.72s.47,2.17-.08,3.67S4.72,18.06,4,20,4,23.87,7.43,25.12Zm7.18-3.51a1.35,1.35,0,0,1-.81-1.73,1.36,1.36,0,1,1,.81,1.73Z"/><path class="cls-1" d="M42.81,47.17c1.58-1.33.67-2.1,1.9-3.13s1.83,0,3.42-1.33,1.93-3.35-.41-6.14c-5.14-6.13-12.69-9-13.63-8.17a.83.83,0,0,0,0,1.28c.54.65,2.54,3.67,2,4.09S33,31.71,32.42,31.05a.84.84,0,0,0-1.27-.19c-.94.79.54,8.72,5.68,14.85C39.17,48.5,41.2,48.52,42.81,47.17Zm-5-11.32a1.36,1.36,0,1,1-.17,1.91A1.35,1.35,0,0,1,37.84,35.85Z"/><path class="cls-1" d="M21.39,45.71c5.14-6.13,6.62-14.06,5.68-14.85a.84.84,0,0,0-1.27.19c-.55.66-3.18,3.14-3.68,2.72s1.49-3.44,2-4.09a.83.83,0,0,0,0-1.28c-.94-.79-8.49,2-13.63,8.17-2.35,2.79-2,4.79-.41,6.14s2.19.3,3.42,1.33.32,1.8,1.9,3.13S19,48.5,21.39,45.71Zm-.84-8a1.36,1.36,0,1,1-.17-1.91A1.36,1.36,0,0,1,20.55,37.76Z"/><circle class="cls-1" cx="29.11" cy="25.45" r="3.55"/><path class="cls-1" d="M58.19,33.24a.81.81,0,0,0-.55-1h0L40.5,28.16a.33.33,0,0,0-.4.23.33.33,0,0,0,.22.41l16.87,5h0A.8.8,0,0,0,58.19,33.24Z"/><path class="cls-1" d="M54.57,35.41a.8.8,0,0,0-.4-1l-.07,0L44.29,30.8a.34.34,0,0,0-.41.18.33.33,0,0,0,.16.41l9.45,4.44.06,0A.82.82,0,0,0,54.57,35.41Z"/><path class="cls-1" d="M56.13,29.55a.81.81,0,0,1-.86.7H55.2L44.93,28.4a.32.32,0,0,1-.26-.36.33.33,0,0,1,.34-.28l10.4.89h.07A.79.79,0,0,1,56.13,29.55Z"/><path class="cls-1" d="M51.48,36.2a.84.84,0,0,1-.8,1.39.8.8,0,0,1-.42-.24l-1.1-1.16a.36.36,0,0,1,0-.43.35.35,0,0,1,.39-.17l1.55.37A.89.89,0,0,1,51.48,36.2Z"/><path class="cls-1" d="M53.86,25.72a.82.82,0,0,1,.59.8.83.83,0,0,1-.59.8.87.87,0,0,1-.48,0l-1.54-.46a.36.36,0,0,1,0-.69l1.54-.45A.79.79,0,0,1,53.86,25.72Z"/><path class="cls-1" d="M46.38.79A.82.82,0,0,0,45.27,1l0,0-9.7,14.67a.34.34,0,0,0,.08.46.33.33,0,0,0,.46-.08L46.56,1.93l0,0A.81.81,0,0,0,46.38.79Z"/><path class="cls-1" d="M47.17,4.94a.79.79,0,0,0-1.1,0L46,5l-6.69,8a.32.32,0,0,0,.47.43L47.2,6.1s0,0,0,0A.8.8,0,0,0,47.17,4.94Z"/><path class="cls-1" d="M42.21,1.46a.81.81,0,0,1,.36,1,.16.16,0,0,0,0,.07l-5.24,9a.32.32,0,0,1-.42.12.33.33,0,0,1-.15-.42l4.39-9.47,0-.06A.82.82,0,0,1,42.21,1.46Z"/><path class="cls-1" d="M46.86,8.11a.85.85,0,0,1,1,1.23.91.91,0,0,1-.37.31l-1.47.64a.37.37,0,0,1-.42-.11.36.36,0,0,1,0-.42l.88-1.34A.84.84,0,0,1,46.86,8.11Z"/><path class="cls-1" d="M37.82,2.29a.84.84,0,0,1,1.51.55.87.87,0,0,1-.16.45l-1,1.29a.34.34,0,0,1-.41.11.35.35,0,0,1-.23-.35l.09-1.6A.85.85,0,0,1,37.82,2.29Z"/><path class="cls-1" d="M0,33.24a.8.8,0,0,1,.54-1h0l17.11-4.09a.33.33,0,0,1,.4.23.34.34,0,0,1-.23.41L1,33.8H1A.8.8,0,0,1,0,33.24Z"/><path class="cls-1" d="M3.65,35.41a.8.8,0,0,1,.4-1l.07,0,9.81-3.55a.33.33,0,0,1,.4.18.31.31,0,0,1-.15.41L4.73,35.83l-.07,0A.81.81,0,0,1,3.65,35.41Z"/><path class="cls-1" d="M2.08,29.55a.81.81,0,0,0,.86.7H3L13.29,28.4a.32.32,0,0,0,.25-.36.32.32,0,0,0-.34-.28l-10.39.89H2.73A.8.8,0,0,0,2.08,29.55Z"/><path class="cls-1" d="M6.74,36.2a.84.84,0,0,0,.8,1.39A.74.74,0,0,0,8,37.35l1.11-1.16a.36.36,0,0,0,0-.43.36.36,0,0,0-.39-.17L7.15,36A.91.91,0,0,0,6.74,36.2Z"/><path class="cls-1" d="M4.36,25.72a.83.83,0,0,0-.6.8.84.84,0,0,0,.6.8.87.87,0,0,0,.48,0l1.53-.46a.36.36,0,0,0,0-.69l-1.53-.45A.79.79,0,0,0,4.36,25.72Z"/><path class="cls-1" d="M11.84.79a.8.8,0,0,1,1.1.18l0,0,9.7,14.67a.34.34,0,0,1-.09.46.32.32,0,0,1-.45-.08L11.66,1.93l0,0A.81.81,0,0,1,11.84.79Z"/><path class="cls-1" d="M11,4.94a.81.81,0,0,1,1.11,0l0,.06,6.68,8a.3.3,0,0,1,0,.43.31.31,0,0,1-.44,0L11,6.1l0,0A.81.81,0,0,1,11,4.94Z"/><path class="cls-1" d="M16,1.46a.81.81,0,0,0-.36,1l0,.07,5.24,9a.32.32,0,0,0,.42.12.32.32,0,0,0,.14-.42L17.11,1.83a.21.21,0,0,0,0-.06A.8.8,0,0,0,16,1.46Z"/><path class="cls-1" d="M11.35,8.11a.84.84,0,0,0-1,1.23.85.85,0,0,0,.37.31l1.47.64a.36.36,0,0,0,.41-.11.35.35,0,0,0,0-.42l-.88-1.34A.87.87,0,0,0,11.35,8.11Z"/><path class="cls-1" d="M20.39,2.29a.84.84,0,0,0-1.5.55.79.79,0,0,0,.16.45L20,4.58a.37.37,0,0,0,.65-.24l-.09-1.6A.86.86,0,0,0,20.39,2.29Z"/><path class="cls-1" d="M26.05,52.56a.79.79,0,0,0,.88-.68v-.06l.9-13a.33.33,0,0,0-.66-.07L25.34,51.65a.13.13,0,0,0,0,.06A.8.8,0,0,0,26.05,52.56Z"/><path class="cls-1" d="M29.11,55.55a.81.81,0,0,0,.81-.78v0l-.47-17.59a.34.34,0,0,0-.67,0l-.47,17.59v0A.8.8,0,0,0,29.11,55.55Z"/><path class="cls-1" d="M32.18,52.56a.79.79,0,0,1-.88-.68v-.06l-.9-13a.33.33,0,0,1,.66-.07l1.83,12.95s0,0,0,.06A.8.8,0,0,1,32.18,52.56Z"/><path class="cls-1" d="M23.25,49.85a.8.8,0,0,0,.94-.55l0-.12.85-6a.33.33,0,0,0-.27-.38.34.34,0,0,0-.4.23l-1.75,5.78,0,.12A.8.8,0,0,0,23.25,49.85Z"/><path class="cls-1" d="M35,49.85A.8.8,0,0,1,34,49.3l0-.12-.85-6a.33.33,0,0,1,.27-.38.34.34,0,0,1,.4.23l1.75,5.78a.43.43,0,0,1,0,.12A.8.8,0,0,1,35,49.85Z"/><path class="cls-1" d="M81.79,36.36a11.45,11.45,0,0,1-3.57-1.63l.21,1.84H76.21L76,27.46h1.67a7.7,7.7,0,0,0,2.52,5.67,8.66,8.66,0,0,0,5.87,2,6.76,6.76,0,0,0,4.38-1.43,4.75,4.75,0,0,0,1.78-3.92,5,5,0,0,0-1-3.14,8.73,8.73,0,0,0-2.48-2.19c-1-.58-2.32-1.26-4-2Q81.82,21,80.12,20a9.79,9.79,0,0,1-2.89-2.71A7.1,7.1,0,0,1,76,13.13a8.05,8.05,0,0,1,.79-3.43,6.84,6.84,0,0,1,2.74-2.91,9.69,9.69,0,0,1,5.15-1.2,15.71,15.71,0,0,1,3.88.5,10.11,10.11,0,0,1,3.57,1.69L92,5.94h2.18v9.41H92.64a9.56,9.56,0,0,0-2.16-5.71A6.71,6.71,0,0,0,85,7.31a5.46,5.46,0,0,0-4,1.43,4.8,4.8,0,0,0-1.45,3.57,4.56,4.56,0,0,0,1,2.95,8.23,8.23,0,0,0,2.4,2.06c.94.54,2.26,1.21,4,2a45.66,45.66,0,0,1,4.68,2.4,10.06,10.06,0,0,1,3,2.8,7.15,7.15,0,0,1,1.24,4.26A7.63,7.63,0,0,1,94.67,33a7.74,7.74,0,0,1-3.44,2.87,13.09,13.09,0,0,1-5.39,1A15.33,15.33,0,0,1,81.79,36.36Z"/><path class="cls-1" d="M106.89,34.82a2.73,2.73,0,0,0,1.71-.49A3.73,3.73,0,0,0,109.65,33a20,20,0,0,0,1-2.37l.43-1.2,8.81-24h1l9.54,24.34a18.47,18.47,0,0,1,.82,2.51,8.42,8.42,0,0,1,.3,2.2l2.91-.17v1.88h-9.8V34.82c1.68,0,2.52-.71,2.52-2a6,6,0,0,0-.43-2l-1.5-4L114.12,27q-.65,1.76-1.5,4.58a29.74,29.74,0,0,1-1.07,3l3.34-.17v1.88h-8Zm17.76-9.67-3-8.17-1.93-5.27h-.08l-1.8,4.84-2.31,6.5-.73,2.1Z"/><path class="cls-1" d="M145.7,34.82a3.13,3.13,0,0,0,2.14-.68,2.45,2.45,0,0,0,.73-1.52c.05-.59.08-1.61.08-3.06V11.07A30.2,30.2,0,0,1,148.78,8l-3.08.17V6.28h9.63V7.69a3.08,3.08,0,0,0-2.14.69,2.4,2.4,0,0,0-.73,1.51q-.09.88-.09,3.06v7h3.21l5.35-8.43A16.35,16.35,0,0,1,164,8L161.36,8V6.28h9.2V7.69a14.38,14.38,0,0,0-3.32.64A7.73,7.73,0,0,0,164.61,10a17.53,17.53,0,0,0-2.69,3.47l-4.2,6.67a9.07,9.07,0,0,1,1.63,1.31,15.33,15.33,0,0,1,1.22,1.41c.35.47.59.78.7.92l4.8,6.38a25.79,25.79,0,0,0,2.63,3.08,6.17,6.17,0,0,0,1.82,1.28,5,5,0,0,0,1.84.3v1.41h-5.22q-1.12,0-4.32-4.19l-5.14-6.93c-.68-.89-1.28-1.61-1.78-2.19a6.5,6.5,0,0,0-1.43-1.28l-2.1,0v9.46c0,1.51,0,2.64-.12,3.38l3.08-.17v1.88H145.7Z"/><path class="cls-1" d="M191.12,35.31a8.86,8.86,0,0,1-3.76-4.92,27.58,27.58,0,0,1-1.14-8.75V13c0-1.82.06-3.48.17-5l-3.08.13V6.28h9.59V7.69c-1.26,0-2.06.33-2.4,1a5.19,5.19,0,0,0-.51,2.4V21.85a27.5,27.5,0,0,0,.66,6.44,8.41,8.41,0,0,0,2.61,4.45,8.11,8.11,0,0,0,5.58,1.74q4.46,0,6.62-3.06a14.58,14.58,0,0,0,2.24-8.32l.13-12A30.2,30.2,0,0,1,208,8l-3,.17V6.28h8V7.69a3.14,3.14,0,0,0-2.18.69A2.4,2.4,0,0,0,210,9.89c-.06.59-.08,1.61-.08,3.06l-.09,9.93A17.61,17.61,0,0,1,207,33q-2.72,3.91-8.75,3.92A13.72,13.72,0,0,1,191.12,35.31Z"/><path class="cls-1" d="M225.93,34.82a3.13,3.13,0,0,0,2.14-.68,2.45,2.45,0,0,0,.73-1.52c.06-.59.08-1.61.08-3.06V11.07c0-1.2.05-2.22.13-3.08l-3.08.17V6.28q4.45-.09,6.72-.09c1.37,0,2.4,0,3.08,0q6,.07,8.84,2a6.45,6.45,0,0,1,2.8,5.63,8.35,8.35,0,0,1-1.75,5.3c-1.2,1.57-3.29,2.65-6.25,3.25a7.56,7.56,0,0,1,1.32,1.33,29,29,0,0,1,1.63,2.4l2.91,4.58c.63,1,1.15,1.76,1.56,2.28a4.9,4.9,0,0,0,1.5,1.29,4.31,4.31,0,0,0,2.16.49v1.41h-5.39a12.74,12.74,0,0,1-1.95-2c-.53-.7-1.15-1.61-1.86-2.72l-2.87-4.58-.55-.9c-.46-.77-.86-1.39-1.2-1.88a8.17,8.17,0,0,0-1.11-1.28,11.86,11.86,0,0,1-1.2,0c-.77,0-1.34,0-1.71,0v8.3c0,1.51-.05,2.64-.13,3.38l3.08-.17v1.88h-9.63Zm17.29-20.45a6.11,6.11,0,0,0-1.88-4.88q-1.89-1.63-5.78-1.63a3.09,3.09,0,0,0-2.14.6,2.26,2.26,0,0,0-.73,1.46c-.06.57-.08,1.58-.08,3v8.22c.85.06,1.48.09,1.88.09Q243.22,21.26,243.22,14.37Z"/><path class="cls-1" d="M261.7,34.82a2.75,2.75,0,0,0,1.72-.49,3.82,3.82,0,0,0,1-1.29,19.74,19.74,0,0,0,1-2.37l.42-1.2,8.82-24h1l9.54,24.34a20,20,0,0,1,.81,2.51,7.64,7.64,0,0,1,.3,2.2l2.91-.17v1.88h-9.8V34.82c1.69,0,2.53-.71,2.53-2a6.27,6.27,0,0,0-.43-2l-1.5-4L268.94,27q-.65,1.76-1.5,4.58c-.29.94-.64,1.92-1.07,3l3.34-.17v1.88h-8Zm17.76-9.67-3-8.17-1.92-5.27h-.09l-1.79,4.84-2.31,6.5-.73,2.1Z"/><path class="cls-1" d="M80.33,45.49l-.61.77a2,2,0,0,0-1.31-.49,1.55,1.55,0,0,0-1.17.46,1.83,1.83,0,0,0,0,2.4,1.58,1.58,0,0,0,1.17.45,2,2,0,0,0,1.31-.47l.61.77a3,3,0,0,1-1.94.7,2.77,2.77,0,0,1-2-.73,2.75,2.75,0,0,1,0-3.84,2.78,2.78,0,0,1,2-.74A2.92,2.92,0,0,1,80.33,45.49Z"/><path class="cls-1" d="M89.56,45.52a2.74,2.74,0,0,1,0,3.81,2.95,2.95,0,0,1-3.93,0,2.74,2.74,0,0,1,0-3.81,2.95,2.95,0,0,1,3.93,0Zm-3.1.72a1.8,1.8,0,0,0,0,2.38,1.63,1.63,0,0,0,2.27,0,1.8,1.8,0,0,0,0-2.38,1.61,1.61,0,0,0-2.27,0Z"/><path class="cls-1" d="M99.74,50h-.89l-2.26-3.13V50H95.44V44.85h.9L98.58,48v-3.1h1.16Z"/><path class="cls-1" d="M108.68,45.22l-.41.83a2.85,2.85,0,0,0-1.38-.37,1.11,1.11,0,0,0-.6.14.46.46,0,0,0-.21.4.45.45,0,0,0,.15.35,1.19,1.19,0,0,0,.44.23l.71.23a3,3,0,0,1,1.1.59,1.21,1.21,0,0,1,.38.93,1.32,1.32,0,0,1-.54,1.13,2.43,2.43,0,0,1-1.48.4,3.55,3.55,0,0,1-2.09-.59l.47-.87a2.8,2.8,0,0,0,1.62.55,1.13,1.13,0,0,0,.63-.15.48.48,0,0,0,.23-.42c0-.28-.21-.48-.63-.61l-.71-.23a2.74,2.74,0,0,1-1.09-.6,1.22,1.22,0,0,1-.35-.88,1.34,1.34,0,0,1,.52-1.1,2.22,2.22,0,0,1,1.4-.41A3.88,3.88,0,0,1,108.68,45.22Z"/><path class="cls-1" d="M118.12,48.05a1.94,1.94,0,0,1-.59,1.48,2.14,2.14,0,0,1-1.54.55,2.18,2.18,0,0,1-1.55-.55,2,2,0,0,1-.59-1.48v-3.2H115v3.2a1,1,0,0,0,.27.75.91.91,0,0,0,.71.28.93.93,0,0,0,.71-.28,1,1,0,0,0,.27-.75v-3.2h1.15Z"/><path class="cls-1" d="M124.62,49h2.13v1h-3.28V44.85h1.15Z"/><path class="cls-1" d="M134.71,45.83h-1.56V50H132V45.83h-1.54v-1h4.23Z"/><path class="cls-1" d="M143.89,45.52a2.74,2.74,0,0,1,0,3.81,2.95,2.95,0,0,1-3.93,0,2.74,2.74,0,0,1,0-3.81,2.95,2.95,0,0,1,3.93,0Zm-3.1.72a1.8,1.8,0,0,0,0,2.38,1.63,1.63,0,0,0,2.27,0,1.8,1.8,0,0,0,0-2.38,1.61,1.61,0,0,0-2.27,0Z"/><path class="cls-1" d="M152.07,44.85a1.65,1.65,0,0,1,1.22.46,1.67,1.67,0,0,1,.18,2.1,1.32,1.32,0,0,1-.82.5l-.08,0,1.24,2V50h-1.17l-1.2-2h-.52v2h-1.15V44.85Zm-1.15,1v1.33H152a.6.6,0,0,0,.46-.18.73.73,0,0,0,0-1,.58.58,0,0,0-.46-.19Z"/><path class="cls-1" d="M160.06,50h-1.15V44.85h1.15Z"/><path class="cls-1" d="M169.87,45.52a2.74,2.74,0,0,1,0,3.81,2.95,2.95,0,0,1-3.93,0,2.72,2.72,0,0,1,0-3.81,2.95,2.95,0,0,1,3.93,0Zm-3.1.72a1.8,1.8,0,0,0,0,2.38,1.51,1.51,0,0,0,1.13.46,1.48,1.48,0,0,0,1.13-.46,1.8,1.8,0,0,0,0-2.38,1.49,1.49,0,0,0-1.13-.47A1.52,1.52,0,0,0,166.77,46.24Z"/><path class="cls-1" d="M186.06,45.52a2.74,2.74,0,0,1,0,3.81,2.95,2.95,0,0,1-3.93,0,2.74,2.74,0,0,1,0-3.81,2.95,2.95,0,0,1,3.93,0Zm-3.1.72a1.8,1.8,0,0,0,0,2.38,1.63,1.63,0,0,0,2.27,0,1.8,1.8,0,0,0,0-2.38,1.61,1.61,0,0,0-2.27,0Z"/><path class="cls-1" d="M194,44.85a2.6,2.6,0,0,1,1.9.71,2.76,2.76,0,0,1,0,3.74,2.59,2.59,0,0,1-1.9.7h-2.07V44.85Zm-.92,1V49h.78a1.62,1.62,0,0,0,1.18-.44,1.75,1.75,0,0,0,0-2.32,1.62,1.62,0,0,0-1.18-.44Z"/><path class="cls-1" d="M206.17,45.52a2.74,2.74,0,0,1,0,3.81,2.95,2.95,0,0,1-3.93,0,2.74,2.74,0,0,1,0-3.81,2.95,2.95,0,0,1,3.93,0Zm-3.1.72a1.8,1.8,0,0,0,0,2.38,1.63,1.63,0,0,0,2.27,0,1.83,1.83,0,0,0,0-2.38,1.61,1.61,0,0,0-2.27,0Z"/><path class="cls-1" d="M216.34,50h-.89l-2.26-3.13V50h-1.14V44.85h.89l2.25,3.1v-3.1h1.15Z"/><path class="cls-1" d="M225.52,45.83H224V50h-1.13V45.83h-1.54v-1h4.23Z"/><path class="cls-1" d="M234.7,45.52a2.74,2.74,0,0,1,0,3.81,2.95,2.95,0,0,1-3.93,0,2.74,2.74,0,0,1,0-3.81,2.95,2.95,0,0,1,3.93,0Zm-3.1.72a1.8,1.8,0,0,0,0,2.38,1.63,1.63,0,0,0,2.27,0,1.8,1.8,0,0,0,0-2.38,1.61,1.61,0,0,0-2.27,0Z"/><path class="cls-1" d="M241.73,49h2.13v1h-3.28V44.85h1.15Z"/><path class="cls-1" d="M253,45.52a2.74,2.74,0,0,1,0,3.81,2.95,2.95,0,0,1-3.93,0,2.74,2.74,0,0,1,0-3.81,2.95,2.95,0,0,1,3.93,0Zm-3.1.72a1.83,1.83,0,0,0,0,2.38,1.63,1.63,0,0,0,2.27,0,1.8,1.8,0,0,0,0-2.38,1.61,1.61,0,0,0-2.27,0Zm2.53-2.84L251,44.52h-.36l.65-1.2h1.18Z"/><path class="cls-1" d="M262.38,44.94a2.77,2.77,0,0,1,.84.43l-.6.77a1.93,1.93,0,0,0-1.16-.37,1.7,1.7,0,0,0-1.23.46,1.78,1.78,0,0,0,0,2.4,1.65,1.65,0,0,0,1.22.45,1.76,1.76,0,0,0,.9-.24V48h-1.16v-.86h2.24v2.18a3,3,0,0,1-.94.56,2.94,2.94,0,0,1-1.06.21,2.86,2.86,0,0,1-2-.72,2.78,2.78,0,0,1,0-3.86,2.9,2.9,0,0,1,2.05-.73A3,3,0,0,1,262.38,44.94Z"/><path class="cls-1" d="M269.74,50h-1.15V44.85h1.15Z"/><path class="cls-1" d="M279.55,45.49l-.61.77a2,2,0,0,0-1.3-.49,1.56,1.56,0,0,0-1.18.46,1.82,1.82,0,0,0,0,2.4,1.59,1.59,0,0,0,1.18.45,2,2,0,0,0,1.3-.47l.61.77a3,3,0,0,1-1.94.7,2.77,2.77,0,0,1-2-.73,2.78,2.78,0,0,1,0-3.84,2.78,2.78,0,0,1,2-.74A2.9,2.9,0,0,1,279.55,45.49Z"/><path class="cls-1" d="M288.78,45.52a2.72,2.72,0,0,1,0,3.81,2.95,2.95,0,0,1-3.93,0,2.74,2.74,0,0,1,0-3.81,2.95,2.95,0,0,1,3.93,0Zm-3.09.72a1.8,1.8,0,0,0,0,2.38,1.49,1.49,0,0,0,1.13.46,1.51,1.51,0,0,0,1.13-.46,1.8,1.8,0,0,0,0-2.38,1.52,1.52,0,0,0-1.13-.47A1.5,1.5,0,0,0,285.69,46.24Z"/></svg>