<svg id="Capa_1" data-name="Capa 1" xmlns="http://www.w3.org/2000/svg" viewBox="0 0 20.2 16.4"><defs><style>.cls-1{fill:#fff;}</style></defs><title>iconos</title><path class="cls-1" d="M18.12,4.09c0,.18,0,.36,0,.54A11.69,11.69,0,0,1,6.36,16.4,11.76,11.76,0,0,1,0,14.55c.33,0,.65,0,1,0a8.33,8.33,0,0,0,5.14-1.77A4.14,4.14,0,0,1,2.27,10a4.93,4.93,0,0,0,.78.06,4.4,4.4,0,0,0,1.09-.14A4.13,4.13,0,0,1,.82,5.82V5.77a4.18,4.18,0,0,0,1.87.52A4.14,4.14,0,0,1,.85,2.84,4.07,4.07,0,0,1,1.41.76,11.77,11.77,0,0,0,9.94,5.09a5,5,0,0,1-.1-1A4.15,4.15,0,0,1,17,1.31a8.23,8.23,0,0,0,2.62-1,4.08,4.08,0,0,1-1.82,2.28A8.36,8.36,0,0,0,20.2,2a9,9,0,0,1-2.08,2.14Z"/></svg>