<svg id="Capa_1" data-name="Capa 1" xmlns="http://www.w3.org/2000/svg" viewBox="0 0 20.44 14.38"><defs><style>.cls-1{fill:#fff;}</style></defs><title>iconos</title><path class="cls-1" d="M19.64,1.23C18.9.36,17.54,0,14.94,0H5.5C2.84,0,1.45.38.72,1.31S0,3.57,0,5.42V9c0,3.6.85,5.42,5.5,5.42h9.44c2.26,0,3.51-.31,4.31-1.09S20.44,11.2,20.44,9V5.42C20.44,3.46,20.38,2.12,19.64,1.23ZM13.12,7.68,8.83,9.92a.64.64,0,0,1-.3.08.67.67,0,0,1-.34-.1.65.65,0,0,1-.32-.56V4.87a.65.65,0,0,1,.32-.56.66.66,0,0,1,.64,0l4.29,2.23a.65.65,0,0,1,.35.58A.63.63,0,0,1,13.12,7.68Z"/></svg>